<svg xmlns="http://www.w3.org/2000/svg" viewBox="0 0 35.581 30.05">
  <g id="Layer_2" data-name="Layer 2">
    <g id="TABS">
      <g>
        <g>
          <path d="M22.976,13l-4.111,5.191a.938.938,0,0,1-.734.355h-1.3a.936.936,0,0,0-.936.936v3.5a.936.936,0,0,0,.936.936h1.3a.938.938,0,0,1,.734.355l4.111,5.191a.938.938,0,0,0,.734.355h1a.936.936,0,0,0,.936-.936v-15.3a.936.936,0,0,0-.936-.936h-1A.938.938,0,0,0,22.976,13Z" fill="#177e96"/>
          <path d="M28.757,27.541a1.029,1.029,0,0,1-.773-1.707,6.972,6.972,0,0,0,0-9.2,1.028,1.028,0,1,1,1.545-1.356,9.028,9.028,0,0,1,0,11.918A1.024,1.024,0,0,1,28.757,27.541Z" fill="#177e96"/>
          <path d="M31.616,30.05a1.027,1.027,0,0,1-.772-1.706,10.774,10.774,0,0,0,0-14.224,1.028,1.028,0,1,1,1.544-1.357,12.828,12.828,0,0,1,0,16.938A1.025,1.025,0,0,1,31.616,30.05Z" fill="#177e96"/>
        </g>
        <path d="M13.1,23.4v-.911a.91.91,0,0,0-.633-.888,5.512,5.512,0,0,0-1.485-.2H2.742V2.742h8.239a2.826,2.826,0,0,1,2.826,2.826v9.3a.937.937,0,0,0,.937.936h.869a.936.936,0,0,0,.936-.936V5.568a2.826,2.826,0,0,1,2.826-2.826h8.241v7.444a.936.936,0,0,0,1.556.7l.869-.767a.938.938,0,0,0,.317-.7V1.371A1.371,1.371,0,0,0,28.987,0H19.376a5.534,5.534,0,0,0-4.2,1.95A5.532,5.532,0,0,0,10.981,0H1.371A1.371,1.371,0,0,0,0,1.371V22.765a1.37,1.37,0,0,0,1.371,1.37h9.61a2.755,2.755,0,0,1,.935.163A.919.919,0,0,0,13.1,23.4Z" fill="#177e96"/>
      </g>
    </g>
  </g>
</svg>
